<svg width="16" height="17" viewBox="0 0 16 17" fill="none" xmlns="http://www.w3.org/2000/svg">
<path d="M8.66667 8.33329C8.54 8.33329 8.41333 8.28662 8.31333 8.18662C8.12 7.99329 8.12 7.67329 8.31333 7.47995L13.78 2.01329C13.9733 1.81995 14.2933 1.81995 14.4867 2.01329C14.68 2.20662 14.68 2.52662 14.4867 2.71995L9.02 8.18662C8.92 8.28662 8.79333 8.33329 8.66667 8.33329Z" fill="#F2F2F3"/>
<path d="M14.6667 5.53337C14.3933 5.53337 14.1667 5.30671 14.1667 5.03337V2.33337H11.4667C11.1933 2.33337 10.9667 2.10671 10.9667 1.83337C10.9667 1.56004 11.1933 1.33337 11.4667 1.33337H14.6667C14.94 1.33337 15.1667 1.56004 15.1667 1.83337V5.03337C15.1667 5.30671 14.94 5.53337 14.6667 5.53337Z" fill="#F2F2F3"/>
<path d="M9.99998 15.6667H5.99998C2.37998 15.6667 0.833313 14.12 0.833313 10.5V6.50004C0.833313 2.88004 2.37998 1.33337 5.99998 1.33337H7.33331C7.60665 1.33337 7.83331 1.56004 7.83331 1.83337C7.83331 2.10671 7.60665 2.33337 7.33331 2.33337H5.99998C2.92665 2.33337 1.83331 3.42671 1.83331 6.50004V10.5C1.83331 13.5734 2.92665 14.6667 5.99998 14.6667H9.99998C13.0733 14.6667 14.1666 13.5734 14.1666 10.5V9.16671C14.1666 8.89337 14.3933 8.66671 14.6666 8.66671C14.94 8.66671 15.1666 8.89337 15.1666 9.16671V10.5C15.1666 14.12 13.62 15.6667 9.99998 15.6667Z" fill="#F2F2F3"/>
</svg>
